# xmcd
#
# Track frame offsets: 
#        150
#        13113
#        27087
#        40088
#        54392
#        66045
#        78086
#        89447
#        100786
#        115113
#        130851
#        143795
#        156410
#
# Disc length: 2251 seconds
#
# Revision: 0
# Processed by: cddbd v1.5.2PL0 Copyright (c) Steve Scherf et al.
# Submitted via: ExactAudioCopy v0.99pb5
#
DISCID=9e08c90d
DTITLE=Heinrich XIII and The Devilgrass Pickers - Devilgrass Country
DYEAR=2009
DGENRE=Country
TTITLE0=Fuck Y**
TTITLE1=On The Run
TTITLE2=Hangover
TTITLE3=Riven By Grief
TTITLE4=Something Of The Dead
TTITLE5=He Loves Them Country
TTITLE6=The Truth Trough My Eyes
TTITLE7=Whiskey Yodel No. 1
TTITLE8=Another Lonesome Blues
TTITLE9=In A World That Has Moved On
TTITLE10=Fuck Y** (feat. Bob Wayne)
TTITLE11=A Ghost In Ths House (live)
TTITLE12=Cold Hearted Girl (live)
EXTD=
EXTT0=
EXTT1=
EXTT2=
EXTT3=
EXTT4=
EXTT5=
EXTT6=
EXTT7=
EXTT8=
EXTT9=
EXTT10=
EXTT11=
EXTT12=
PLAYORDER=
